<?xml version="1.0" encoding="UTF-8"?>
<svg width="72px" height="72px" viewBox="0 0 72 72" version="1.1" xmlns="http://www.w3.org/2000/svg" xmlns:xlink="http://www.w3.org/1999/xlink">
    <!-- Generator: Sketch 63.1 (92452) - https://sketch.com -->
    <title>QQ账号登录</title>
    <desc>Created with Sketch.</desc>
    <g id="登录" stroke="none" stroke-width="1" fill="none" fill-rule="evenodd">
        <g id="2-3-1-选择登录方式" transform="translate(-486.000000, -403.000000)">
            <g id="编组-2" transform="translate(440.000000, 278.000000)">
                <g id="编组-13" transform="translate(43.000000, 36.000000)">
                    <g id="编组-9" transform="translate(0.000000, 89.000000)">
                        <g id="编组-8">
                            <g id="QQ账号登录" transform="translate(3.000000, 0.000000)">
                                <circle id="椭圆形" stroke="#14BCFA" stroke-width="2" cx="36" cy="36" r="35"></circle>
                                <path d="M50.8784812,44.4157001 C50.8784812,44.4157001 49.8520738,47.2278481 47.9671877,49.7557893 C47.9671877,49.7557893 51.3310305,50.9056769 51.0510275,53.8879286 C51.0510275,53.8879286 51.1607524,57.2168569 43.8570215,56.9885695 C43.8570215,56.9885695 38.7204478,56.588359 37.1787507,54.4068922 L35.8206574,54.4068922 C34.280783,56.5905424 29.1442498,56.9885695 29.1442498,56.9885695 C21.836104,57.2190403 21.9525525,53.8879286 21.9525525,53.8879286 C21.6680132,50.9057173 25.0341241,49.7557893 25.0341241,49.7557893 C23.1517088,47.227929 22.1229116,44.4157001 22.1229116,44.4157001 C17.5557407,51.8207268 18.0127049,43.3819375 18.0127049,43.3819375 C18.8689963,38.3886057 22.46606,35.1179824 22.46606,35.1179824 C21.952593,30.5830854 23.8352919,29.7776102 23.8352919,29.7776102 C24.2273689,15.748044 36.2486209,15.9943647 36.4998256,16.0010363 C36.752934,15.9944456 48.76969,15.7480844 49.166182,29.7776506 C49.166182,29.7776506 51.051149,30.580902 50.5356973,35.1180229 C50.5356973,35.1180229 54.1304524,38.3886865 54.9865007,43.3819779 C54.9887284,43.3819375 55.4435864,51.8207268 50.8785622,44.4157001 L50.8785622,44.4157001 L50.8785622,44.4157001 L50.8784812,44.4157001 Z" id="路径" fill="#00B9FE" fill-rule="nonzero"></path>
                            </g>
                        </g>
                    </g>
                </g>
            </g>
        </g>
    </g>
</svg>