<?xml version="1.0" encoding="UTF-8"?>
<svg width="72px" height="72px" viewBox="0 0 72 72" version="1.1" xmlns="http://www.w3.org/2000/svg" xmlns:xlink="http://www.w3.org/1999/xlink">
    <!-- Generator: Sketch 63.1 (92452) - https://sketch.com -->
    <title>微信账号登录</title>
    <desc>Created with Sketch.</desc>
    <g id="登录" stroke="none" stroke-width="1" fill="none" fill-rule="evenodd">
        <g id="2-3-1-选择登录方式" transform="translate(-684.000000, -403.000000)">
            <g id="编组-2" transform="translate(440.000000, 278.000000)">
                <g id="编组-13" transform="translate(43.000000, 36.000000)">
                    <g id="编组-9" transform="translate(0.000000, 89.000000)">
                        <g id="编组-7" transform="translate(195.000000, 0.000000)">
                            <g id="微信账号登录" transform="translate(6.000000, 0.000000)">
                                <g id="编组" transform="translate(13.000000, 18.000000)">
                                    <path d="M31.1395123,10.8921951 C31.66878,10.8921951 32.1907471,10.9297894 32.7076308,10.984343 C31.2993688,4.68295028 24.2860173,0 16.2814041,0 C7.33160437,0 0,5.8612881 0,13.3033719 C0,17.598461 2.43970408,21.1261236 6.51507089,23.862207 L4.88692506,28.56889 L10.5779455,25.8260858 C12.615629,26.2127919 14.2486959,26.6115744 16.2814041,26.6115744 C16.7920688,26.6115744 17.2977041,26.5874216 17.800906,26.5486723 C17.4824909,25.5036995 17.2977042,24.4078485 17.2977042,23.271883 C17.2977582,16.4383427 23.4057791,10.8921951 31.1395123,10.8921951 Z M46,23.0839642 C46,16.8298793 39.4861729,11.7322898 32.1707921,11.7322898 C24.4245668,11.7322898 18.3240628,16.8298794 18.3240628,23.0839642 C18.3240628,29.3471326 24.4245668,34.433801 32.1707921,34.433801 C33.791421,34.433801 35.4270838,34.0433669 37.0551215,33.6506752 L41.5214228,36 L40.2964874,32.0916695 C43.5653793,29.7350464 46,26.6115743 46,23.0839642 Z" id="形状" fill="#4CBF00" fill-rule="nonzero"></path>
                                    <circle id="椭圆形备份-5" fill="#FFFFFF" fill-rule="nonzero" cx="11" cy="10" r="2"></circle>
                                    <circle id="椭圆形备份-6" fill="#FFFFFF" fill-rule="nonzero" cx="22" cy="10" r="2"></circle>
                                    <circle id="椭圆形" fill="#FFFFFF" cx="37" cy="20" r="2"></circle>
                                    <circle id="椭圆形备份-5" fill="#FFFFFF" cx="28" cy="20" r="2"></circle>
                                </g>
                                <circle id="椭圆形备份-4" stroke="#4CBF00" stroke-width="2" cx="36" cy="36" r="35"></circle>
                            </g>
                        </g>
                    </g>
                </g>
            </g>
        </g>
    </g>
</svg>